<svg xmlns="http://www.w3.org/2000/svg" width="192" height="256" viewBox="0 0 192 256"><g transform="translate(0 0)"><g transform=""><ellipse cx="23" cy="60" rx="7" ry="3" fill="#3d6558"/><ellipse cx="41" cy="61" rx="7" ry="3" fill="#3d6558"/><g transform="translate(0 0) rotate(-3 32 40)"><ellipse cx="32" cy="59" rx="22" ry="4" fill="#184939" opacity=".2"/><path d="M12 26 L12 8 L27 21 M37 21 L52 8 L52 26" fill="#acd28b" stroke="#3d6558" stroke-width="2"/><path d="M14 45 Q9 61 32 60 Q55 61 50 45" fill="#acd28b" stroke="#3d6558" stroke-width="2"/><circle cx="32" cy="33" r="23" fill="#acd28b" stroke="#3d6558" stroke-width="2"/><path d="M12 29 Q32 12 52 29" fill="#fff4d5" opacity=".55"/><ellipse cx="23" cy="33" rx="3" ry="4" fill="#253e3b"/><ellipse cx="41" cy="33" rx="3" ry="4" fill="#253e3b"/><circle cx="22" cy="32" r="1" fill="white"/><circle cx="40" cy="32" r="1" fill="white"/><ellipse cx="16" cy="40" rx="4" ry="2" fill="#e398a8"/><ellipse cx="48" cy="40" rx="4" ry="2" fill="#e398a8"/><path d="M27 41 Q32 47 37 41" fill="none" stroke="#253e3b" stroke-width="2" stroke-linecap="round"/><path d="M31 48 L34 53 L29 53 Z" fill="#f4d374"/><circle cx="53" cy="51" r="8" fill="#f4d374" stroke="#846837" stroke-width="2"/><path d="M49 51 H57 M53 47 V55" stroke="#846837" stroke-width="2"/></g></g></g><g transform="translate(64 0)"><g transform=""><ellipse cx="24" cy="60" rx="7" ry="3" fill="#3d6558"/><ellipse cx="40" cy="59" rx="7" ry="3" fill="#3d6558"/><g transform="translate(0 -2) rotate(0 32 40)"><ellipse cx="32" cy="59" rx="22" ry="4" fill="#184939" opacity=".2"/><path d="M12 26 L12 8 L27 21 M37 21 L52 8 L52 26" fill="#acd28b" stroke="#3d6558" stroke-width="2"/><path d="M14 45 Q9 61 32 60 Q55 61 50 45" fill="#acd28b" stroke="#3d6558" stroke-width="2"/><circle cx="32" cy="33" r="23" fill="#acd28b" stroke="#3d6558" stroke-width="2"/><path d="M12 29 Q32 12 52 29" fill="#fff4d5" opacity=".55"/><ellipse cx="23" cy="33" rx="3" ry="4" fill="#253e3b"/><ellipse cx="41" cy="33" rx="3" ry="4" fill="#253e3b"/><circle cx="22" cy="32" r="1" fill="white"/><circle cx="40" cy="32" r="1" fill="white"/><ellipse cx="16" cy="40" rx="4" ry="2" fill="#e398a8"/><ellipse cx="48" cy="40" rx="4" ry="2" fill="#e398a8"/><path d="M27 41 Q32 47 37 41" fill="none" stroke="#253e3b" stroke-width="2" stroke-linecap="round"/><path d="M31 48 L34 53 L29 53 Z" fill="#f4d374"/><circle cx="53" cy="51" r="8" fill="#f4d374" stroke="#846837" stroke-width="2"/><path d="M49 51 H57 M53 47 V55" stroke="#846837" stroke-width="2"/></g></g></g><g transform="translate(128 0)"><g transform=""><ellipse cx="25" cy="60" rx="7" ry="3" fill="#3d6558"/><ellipse cx="39" cy="61" rx="7" ry="3" fill="#3d6558"/><g transform="translate(0 0) rotate(3 32 40)"><ellipse cx="32" cy="59" rx="22" ry="4" fill="#184939" opacity=".2"/><path d="M12 26 L12 8 L27 21 M37 21 L52 8 L52 26" fill="#acd28b" stroke="#3d6558" stroke-width="2"/><path d="M14 45 Q9 61 32 60 Q55 61 50 45" fill="#acd28b" stroke="#3d6558" stroke-width="2"/><circle cx="32" cy="33" r="23" fill="#acd28b" stroke="#3d6558" stroke-width="2"/><path d="M12 29 Q32 12 52 29" fill="#fff4d5" opacity=".55"/><ellipse cx="23" cy="33" rx="3" ry="4" fill="#253e3b"/><ellipse cx="41" cy="33" rx="3" ry="4" fill="#253e3b"/><circle cx="22" cy="32" r="1" fill="white"/><circle cx="40" cy="32" r="1" fill="white"/><ellipse cx="16" cy="40" rx="4" ry="2" fill="#e398a8"/><ellipse cx="48" cy="40" rx="4" ry="2" fill="#e398a8"/><path d="M27 41 Q32 47 37 41" fill="none" stroke="#253e3b" stroke-width="2" stroke-linecap="round"/><path d="M31 48 L34 53 L29 53 Z" fill="#f4d374"/><circle cx="53" cy="51" r="8" fill="#f4d374" stroke="#846837" stroke-width="2"/><path d="M49 51 H57 M53 47 V55" stroke="#846837" stroke-width="2"/></g></g></g><g transform="translate(0 64)"><g transform="translate(58 0) scale(-.9 1)"><ellipse cx="23" cy="60" rx="7" ry="3" fill="#3d6558"/><ellipse cx="41" cy="61" rx="7" ry="3" fill="#3d6558"/><g transform="translate(0 0) rotate(-3 32 40)"><ellipse cx="32" cy="59" rx="22" ry="4" fill="#184939" opacity=".2"/><path d="M12 26 L12 8 L27 21 M37 21 L52 8 L52 26" fill="#acd28b" stroke="#3d6558" stroke-width="2"/><path d="M14 45 Q9 61 32 60 Q55 61 50 45" fill="#acd28b" stroke="#3d6558" stroke-width="2"/><circle cx="32" cy="33" r="23" fill="#acd28b" stroke="#3d6558" stroke-width="2"/><path d="M12 29 Q32 12 52 29" fill="#fff4d5" opacity=".55"/><ellipse cx="23" cy="33" rx="3" ry="4" fill="#253e3b"/><ellipse cx="41" cy="33" rx="3" ry="4" fill="#253e3b"/><circle cx="22" cy="32" r="1" fill="white"/><circle cx="40" cy="32" r="1" fill="white"/><ellipse cx="16" cy="40" rx="4" ry="2" fill="#e398a8"/><ellipse cx="48" cy="40" rx="4" ry="2" fill="#e398a8"/><path d="M27 41 Q32 47 37 41" fill="none" stroke="#253e3b" stroke-width="2" stroke-linecap="round"/><path d="M31 48 L34 53 L29 53 Z" fill="#f4d374"/><circle cx="53" cy="51" r="8" fill="#f4d374" stroke="#846837" stroke-width="2"/><path d="M49 51 H57 M53 47 V55" stroke="#846837" stroke-width="2"/></g></g></g><g transform="translate(64 64)"><g transform="translate(58 0) scale(-.9 1)"><ellipse cx="24" cy="60" rx="7" ry="3" fill="#3d6558"/><ellipse cx="40" cy="59" rx="7" ry="3" fill="#3d6558"/><g transform="translate(0 -2) rotate(0 32 40)"><ellipse cx="32" cy="59" rx="22" ry="4" fill="#184939" opacity=".2"/><path d="M12 26 L12 8 L27 21 M37 21 L52 8 L52 26" fill="#acd28b" stroke="#3d6558" stroke-width="2"/><path d="M14 45 Q9 61 32 60 Q55 61 50 45" fill="#acd28b" stroke="#3d6558" stroke-width="2"/><circle cx="32" cy="33" r="23" fill="#acd28b" stroke="#3d6558" stroke-width="2"/><path d="M12 29 Q32 12 52 29" fill="#fff4d5" opacity=".55"/><ellipse cx="23" cy="33" rx="3" ry="4" fill="#253e3b"/><ellipse cx="41" cy="33" rx="3" ry="4" fill="#253e3b"/><circle cx="22" cy="32" r="1" fill="white"/><circle cx="40" cy="32" r="1" fill="white"/><ellipse cx="16" cy="40" rx="4" ry="2" fill="#e398a8"/><ellipse cx="48" cy="40" rx="4" ry="2" fill="#e398a8"/><path d="M27 41 Q32 47 37 41" fill="none" stroke="#253e3b" stroke-width="2" stroke-linecap="round"/><path d="M31 48 L34 53 L29 53 Z" fill="#f4d374"/><circle cx="53" cy="51" r="8" fill="#f4d374" stroke="#846837" stroke-width="2"/><path d="M49 51 H57 M53 47 V55" stroke="#846837" stroke-width="2"/></g></g></g><g transform="translate(128 64)"><g transform="translate(58 0) scale(-.9 1)"><ellipse cx="25" cy="60" rx="7" ry="3" fill="#3d6558"/><ellipse cx="39" cy="61" rx="7" ry="3" fill="#3d6558"/><g transform="translate(0 0) rotate(3 32 40)"><ellipse cx="32" cy="59" rx="22" ry="4" fill="#184939" opacity=".2"/><path d="M12 26 L12 8 L27 21 M37 21 L52 8 L52 26" fill="#acd28b" stroke="#3d6558" stroke-width="2"/><path d="M14 45 Q9 61 32 60 Q55 61 50 45" fill="#acd28b" stroke="#3d6558" stroke-width="2"/><circle cx="32" cy="33" r="23" fill="#acd28b" stroke="#3d6558" stroke-width="2"/><path d="M12 29 Q32 12 52 29" fill="#fff4d5" opacity=".55"/><ellipse cx="23" cy="33" rx="3" ry="4" fill="#253e3b"/><ellipse cx="41" cy="33" rx="3" ry="4" fill="#253e3b"/><circle cx="22" cy="32" r="1" fill="white"/><circle cx="40" cy="32" r="1" fill="white"/><ellipse cx="16" cy="40" rx="4" ry="2" fill="#e398a8"/><ellipse cx="48" cy="40" rx="4" ry="2" fill="#e398a8"/><path d="M27 41 Q32 47 37 41" fill="none" stroke="#253e3b" stroke-width="2" stroke-linecap="round"/><path d="M31 48 L34 53 L29 53 Z" fill="#f4d374"/><circle cx="53" cy="51" r="8" fill="#f4d374" stroke="#846837" stroke-width="2"/><path d="M49 51 H57 M53 47 V55" stroke="#846837" stroke-width="2"/></g></g></g><g transform="translate(0 128)"><g transform="translate(6 0) scale(.9 1)"><ellipse cx="23" cy="60" rx="7" ry="3" fill="#3d6558"/><ellipse cx="41" cy="61" rx="7" ry="3" fill="#3d6558"/><g transform="translate(0 0) rotate(-3 32 40)"><ellipse cx="32" cy="59" rx="22" ry="4" fill="#184939" opacity=".2"/><path d="M12 26 L12 8 L27 21 M37 21 L52 8 L52 26" fill="#acd28b" stroke="#3d6558" stroke-width="2"/><path d="M14 45 Q9 61 32 60 Q55 61 50 45" fill="#acd28b" stroke="#3d6558" stroke-width="2"/><circle cx="32" cy="33" r="23" fill="#acd28b" stroke="#3d6558" stroke-width="2"/><path d="M12 29 Q32 12 52 29" fill="#fff4d5" opacity=".55"/><ellipse cx="23" cy="33" rx="3" ry="4" fill="#253e3b"/><ellipse cx="41" cy="33" rx="3" ry="4" fill="#253e3b"/><circle cx="22" cy="32" r="1" fill="white"/><circle cx="40" cy="32" r="1" fill="white"/><ellipse cx="16" cy="40" rx="4" ry="2" fill="#e398a8"/><ellipse cx="48" cy="40" rx="4" ry="2" fill="#e398a8"/><path d="M27 41 Q32 47 37 41" fill="none" stroke="#253e3b" stroke-width="2" stroke-linecap="round"/><path d="M31 48 L34 53 L29 53 Z" fill="#f4d374"/><circle cx="53" cy="51" r="8" fill="#f4d374" stroke="#846837" stroke-width="2"/><path d="M49 51 H57 M53 47 V55" stroke="#846837" stroke-width="2"/></g></g></g><g transform="translate(64 128)"><g transform="translate(6 0) scale(.9 1)"><ellipse cx="24" cy="60" rx="7" ry="3" fill="#3d6558"/><ellipse cx="40" cy="59" rx="7" ry="3" fill="#3d6558"/><g transform="translate(0 -2) rotate(0 32 40)"><ellipse cx="32" cy="59" rx="22" ry="4" fill="#184939" opacity=".2"/><path d="M12 26 L12 8 L27 21 M37 21 L52 8 L52 26" fill="#acd28b" stroke="#3d6558" stroke-width="2"/><path d="M14 45 Q9 61 32 60 Q55 61 50 45" fill="#acd28b" stroke="#3d6558" stroke-width="2"/><circle cx="32" cy="33" r="23" fill="#acd28b" stroke="#3d6558" stroke-width="2"/><path d="M12 29 Q32 12 52 29" fill="#fff4d5" opacity=".55"/><ellipse cx="23" cy="33" rx="3" ry="4" fill="#253e3b"/><ellipse cx="41" cy="33" rx="3" ry="4" fill="#253e3b"/><circle cx="22" cy="32" r="1" fill="white"/><circle cx="40" cy="32" r="1" fill="white"/><ellipse cx="16" cy="40" rx="4" ry="2" fill="#e398a8"/><ellipse cx="48" cy="40" rx="4" ry="2" fill="#e398a8"/><path d="M27 41 Q32 47 37 41" fill="none" stroke="#253e3b" stroke-width="2" stroke-linecap="round"/><path d="M31 48 L34 53 L29 53 Z" fill="#f4d374"/><circle cx="53" cy="51" r="8" fill="#f4d374" stroke="#846837" stroke-width="2"/><path d="M49 51 H57 M53 47 V55" stroke="#846837" stroke-width="2"/></g></g></g><g transform="translate(128 128)"><g transform="translate(6 0) scale(.9 1)"><ellipse cx="25" cy="60" rx="7" ry="3" fill="#3d6558"/><ellipse cx="39" cy="61" rx="7" ry="3" fill="#3d6558"/><g transform="translate(0 0) rotate(3 32 40)"><ellipse cx="32" cy="59" rx="22" ry="4" fill="#184939" opacity=".2"/><path d="M12 26 L12 8 L27 21 M37 21 L52 8 L52 26" fill="#acd28b" stroke="#3d6558" stroke-width="2"/><path d="M14 45 Q9 61 32 60 Q55 61 50 45" fill="#acd28b" stroke="#3d6558" stroke-width="2"/><circle cx="32" cy="33" r="23" fill="#acd28b" stroke="#3d6558" stroke-width="2"/><path d="M12 29 Q32 12 52 29" fill="#fff4d5" opacity=".55"/><ellipse cx="23" cy="33" rx="3" ry="4" fill="#253e3b"/><ellipse cx="41" cy="33" rx="3" ry="4" fill="#253e3b"/><circle cx="22" cy="32" r="1" fill="white"/><circle cx="40" cy="32" r="1" fill="white"/><ellipse cx="16" cy="40" rx="4" ry="2" fill="#e398a8"/><ellipse cx="48" cy="40" rx="4" ry="2" fill="#e398a8"/><path d="M27 41 Q32 47 37 41" fill="none" stroke="#253e3b" stroke-width="2" stroke-linecap="round"/><path d="M31 48 L34 53 L29 53 Z" fill="#f4d374"/><circle cx="53" cy="51" r="8" fill="#f4d374" stroke="#846837" stroke-width="2"/><path d="M49 51 H57 M53 47 V55" stroke="#846837" stroke-width="2"/></g></g></g><g transform="translate(0 192)"><g transform=""><ellipse cx="23" cy="60" rx="7" ry="3" fill="#3d6558"/><ellipse cx="41" cy="61" rx="7" ry="3" fill="#3d6558"/><g transform="translate(0 0) rotate(-3 32 40)"><ellipse cx="32" cy="59" rx="22" ry="4" fill="#184939" opacity=".2"/><path d="M12 26 L12 8 L27 21 M37 21 L52 8 L52 26" fill="#acd28b" stroke="#3d6558" stroke-width="2"/><path d="M14 45 Q9 61 32 60 Q55 61 50 45" fill="#acd28b" stroke="#3d6558" stroke-width="2"/><circle cx="32" cy="33" r="23" fill="#acd28b" stroke="#3d6558" stroke-width="2"/><path d="M12 29 Q32 12 52 29" fill="#fff4d5" opacity=".55"/><path d="M31 48 L34 53 L29 53 Z" fill="#f4d374"/><circle cx="53" cy="51" r="8" fill="#f4d374" stroke="#846837" stroke-width="2"/><path d="M49 51 H57 M53 47 V55" stroke="#846837" stroke-width="2"/></g></g></g><g transform="translate(64 192)"><g transform=""><ellipse cx="24" cy="60" rx="7" ry="3" fill="#3d6558"/><ellipse cx="40" cy="59" rx="7" ry="3" fill="#3d6558"/><g transform="translate(0 -2) rotate(0 32 40)"><ellipse cx="32" cy="59" rx="22" ry="4" fill="#184939" opacity=".2"/><path d="M12 26 L12 8 L27 21 M37 21 L52 8 L52 26" fill="#acd28b" stroke="#3d6558" stroke-width="2"/><path d="M14 45 Q9 61 32 60 Q55 61 50 45" fill="#acd28b" stroke="#3d6558" stroke-width="2"/><circle cx="32" cy="33" r="23" fill="#acd28b" stroke="#3d6558" stroke-width="2"/><path d="M12 29 Q32 12 52 29" fill="#fff4d5" opacity=".55"/><path d="M31 48 L34 53 L29 53 Z" fill="#f4d374"/><circle cx="53" cy="51" r="8" fill="#f4d374" stroke="#846837" stroke-width="2"/><path d="M49 51 H57 M53 47 V55" stroke="#846837" stroke-width="2"/></g></g></g><g transform="translate(128 192)"><g transform=""><ellipse cx="25" cy="60" rx="7" ry="3" fill="#3d6558"/><ellipse cx="39" cy="61" rx="7" ry="3" fill="#3d6558"/><g transform="translate(0 0) rotate(3 32 40)"><ellipse cx="32" cy="59" rx="22" ry="4" fill="#184939" opacity=".2"/><path d="M12 26 L12 8 L27 21 M37 21 L52 8 L52 26" fill="#acd28b" stroke="#3d6558" stroke-width="2"/><path d="M14 45 Q9 61 32 60 Q55 61 50 45" fill="#acd28b" stroke="#3d6558" stroke-width="2"/><circle cx="32" cy="33" r="23" fill="#acd28b" stroke="#3d6558" stroke-width="2"/><path d="M12 29 Q32 12 52 29" fill="#fff4d5" opacity=".55"/><path d="M31 48 L34 53 L29 53 Z" fill="#f4d374"/><circle cx="53" cy="51" r="8" fill="#f4d374" stroke="#846837" stroke-width="2"/><path d="M49 51 H57 M53 47 V55" stroke="#846837" stroke-width="2"/></g></g></g></svg>