<svg xmlns="http://www.w3.org/2000/svg" width="192" height="64"><g transform="translate(0 0)"><ellipse cx="32" cy="58" rx="23" ry="4" fill="#142b29" opacity=".25"/><g transform="translate(0 -1)"><ellipse cx="22" cy="54" rx="7" ry="4" fill="#f9a579"/><ellipse cx="42" cy="53" rx="7" ry="4" fill="#f9a579"/><ellipse cx="32" cy="35" rx="22" ry="23" fill="#f9a579" stroke="#385554" stroke-width="2"/><path d="M16 23 Q4 9 13 7 Q22 12 20 22 M48 23 Q60 9 51 7 Q42 12 44 22" fill="none" stroke="#eee4be" stroke-width="6"/><ellipse cx="24" cy="34" rx="3" ry="4" fill="#223d3b"/><ellipse cx="40" cy="34" rx="3" ry="4" fill="#223d3b"/><circle cx="23" cy="33" r="1" fill="white"/><circle cx="39" cy="33" r="1" fill="white"/><path d="M27 43 Q32 47 37 43" stroke="#385554" fill="none" stroke-width="2"/><ellipse cx="16" cy="40" rx="3" ry="2" fill="#fff" opacity=".3"/></g></g><g transform="translate(64 0)"><ellipse cx="32" cy="58" rx="23" ry="4" fill="#142b29" opacity=".25"/><g transform="translate(0 1)"><ellipse cx="22" cy="54" rx="7" ry="4" fill="#f9a579"/><ellipse cx="42" cy="54" rx="7" ry="4" fill="#f9a579"/><ellipse cx="32" cy="35" rx="22" ry="23" fill="#f9a579" stroke="#385554" stroke-width="2"/><path d="M16 23 Q4 9 13 7 Q22 12 20 22 M48 23 Q60 9 51 7 Q42 12 44 22" fill="none" stroke="#eee4be" stroke-width="6"/><ellipse cx="24" cy="34" rx="3" ry="4" fill="#223d3b"/><ellipse cx="40" cy="34" rx="3" ry="4" fill="#223d3b"/><circle cx="23" cy="33" r="1" fill="white"/><circle cx="39" cy="33" r="1" fill="white"/><path d="M27 43 Q32 47 37 43" stroke="#385554" fill="none" stroke-width="2"/><ellipse cx="16" cy="40" rx="3" ry="2" fill="#fff" opacity=".3"/></g></g><g transform="translate(128 0)"><ellipse cx="32" cy="58" rx="23" ry="4" fill="#142b29" opacity=".25"/><g transform="translate(0 -1)"><ellipse cx="22" cy="54" rx="7" ry="4" fill="#f9a579"/><ellipse cx="42" cy="55" rx="7" ry="4" fill="#f9a579"/><ellipse cx="32" cy="35" rx="22" ry="23" fill="#f9a579" stroke="#385554" stroke-width="2"/><path d="M16 23 Q4 9 13 7 Q22 12 20 22 M48 23 Q60 9 51 7 Q42 12 44 22" fill="none" stroke="#eee4be" stroke-width="6"/><ellipse cx="24" cy="34" rx="3" ry="4" fill="#223d3b"/><ellipse cx="40" cy="34" rx="3" ry="4" fill="#223d3b"/><circle cx="23" cy="33" r="1" fill="white"/><circle cx="39" cy="33" r="1" fill="white"/><path d="M27 43 Q32 47 37 43" stroke="#385554" fill="none" stroke-width="2"/><ellipse cx="16" cy="40" rx="3" ry="2" fill="#fff" opacity=".3"/></g></g></svg>