<svg xmlns="http://www.w3.org/2000/svg" width="192" height="64"><g transform="translate(0 0)"><ellipse cx="32" cy="58" rx="23" ry="4" fill="#142b29" opacity=".25"/><g transform="translate(0 -1)"><ellipse cx="22" cy="54" rx="7" ry="4" fill="#6da894"/><ellipse cx="42" cy="53" rx="7" ry="4" fill="#6da894"/><ellipse cx="32" cy="35" rx="22" ry="23" fill="#6da894" stroke="#385554" stroke-width="2"/><path d="M15 27 Q32 11 49 27 L49 48 Q32 62 15 48 Z" fill="#496e52"/><path d="M18 28 L46 45 M46 28 L18 45 M32 24 V52" stroke="#a3c9a1" stroke-width="2"/><ellipse cx="24" cy="34" rx="3" ry="4" fill="#223d3b"/><ellipse cx="40" cy="34" rx="3" ry="4" fill="#223d3b"/><circle cx="23" cy="33" r="1" fill="white"/><circle cx="39" cy="33" r="1" fill="white"/><path d="M27 43 Q32 47 37 43" stroke="#385554" fill="none" stroke-width="2"/><ellipse cx="16" cy="40" rx="3" ry="2" fill="#fff" opacity=".3"/></g></g><g transform="translate(64 0)"><ellipse cx="32" cy="58" rx="23" ry="4" fill="#142b29" opacity=".25"/><g transform="translate(0 1)"><ellipse cx="22" cy="54" rx="7" ry="4" fill="#6da894"/><ellipse cx="42" cy="54" rx="7" ry="4" fill="#6da894"/><ellipse cx="32" cy="35" rx="22" ry="23" fill="#6da894" stroke="#385554" stroke-width="2"/><path d="M15 27 Q32 11 49 27 L49 48 Q32 62 15 48 Z" fill="#496e52"/><path d="M18 28 L46 45 M46 28 L18 45 M32 24 V52" stroke="#a3c9a1" stroke-width="2"/><ellipse cx="24" cy="34" rx="3" ry="4" fill="#223d3b"/><ellipse cx="40" cy="34" rx="3" ry="4" fill="#223d3b"/><circle cx="23" cy="33" r="1" fill="white"/><circle cx="39" cy="33" r="1" fill="white"/><path d="M27 43 Q32 47 37 43" stroke="#385554" fill="none" stroke-width="2"/><ellipse cx="16" cy="40" rx="3" ry="2" fill="#fff" opacity=".3"/></g></g><g transform="translate(128 0)"><ellipse cx="32" cy="58" rx="23" ry="4" fill="#142b29" opacity=".25"/><g transform="translate(0 -1)"><ellipse cx="22" cy="54" rx="7" ry="4" fill="#6da894"/><ellipse cx="42" cy="55" rx="7" ry="4" fill="#6da894"/><ellipse cx="32" cy="35" rx="22" ry="23" fill="#6da894" stroke="#385554" stroke-width="2"/><path d="M15 27 Q32 11 49 27 L49 48 Q32 62 15 48 Z" fill="#496e52"/><path d="M18 28 L46 45 M46 28 L18 45 M32 24 V52" stroke="#a3c9a1" stroke-width="2"/><ellipse cx="24" cy="34" rx="3" ry="4" fill="#223d3b"/><ellipse cx="40" cy="34" rx="3" ry="4" fill="#223d3b"/><circle cx="23" cy="33" r="1" fill="white"/><circle cx="39" cy="33" r="1" fill="white"/><path d="M27 43 Q32 47 37 43" stroke="#385554" fill="none" stroke-width="2"/><ellipse cx="16" cy="40" rx="3" ry="2" fill="#fff" opacity=".3"/></g></g></svg>